<?xml version="1.0" standalone="no"?>
<!DOCTYPE svg PUBLIC "-//W3C//DTD SVG 20010904//EN"
 "http://www.w3.org/TR/2001/REC-SVG-20010904/DTD/svg10.dtd">
<svg version="1.0" xmlns="http://www.w3.org/2000/svg"
 width="450.000000pt" height="450.000000pt" viewBox="0 0 450.000000 450.000000"
 preserveAspectRatio="xMidYMid meet">
<metadata>
Created by potrace 1.15, written by Peter Selinger 2001-2017
</metadata>
<g transform="translate(0.000000,450.000000) scale(0.100000,-0.100000)"
fill="#000000" stroke="none">
<path d="M2410 4382 c-101 -7 -183 -50 -215 -112 -19 -38 -30 -133 -17 -155 9
-17 11 -16 27 8 18 28 13 47 -11 47 -8 0 -14 6 -14 13 0 14 18 44 22 37 2 -3
13 -19 25 -36 13 -19 20 -40 16 -52 -6 -24 14 -36 117 -72 l65 -22 85 33 c76
30 85 37 85 60 1 28 41 86 52 75 4 -4 2 -20 -4 -37 -9 -23 -9 -29 0 -26 48 15
-18 182 -87 219 -25 14 -97 24 -146 20z m0 -32 c-15 -27 -15 -133 0 -160 22
-40 35 -6 35 91 0 80 2 89 19 89 13 0 17 -5 13 -19 -2 -10 -1 -25 4 -32 9 -14
13 -12 38 30 15 24 44 5 37 -24 -6 -23 -4 -24 22 -19 23 5 30 1 40 -21 7 -14
12 -34 12 -43 -1 -29 -65 -106 -110 -131 l-43 -23 26 33 c33 46 59 98 54 112
-5 17 -51 -33 -87 -97 -43 -75 -68 -77 -94 -4 -22 61 -78 125 -84 95 -2 -11 8
-41 22 -68 14 -27 22 -49 18 -49 -18 0 -79 62 -101 103 l-24 44 22 32 c22 30
23 30 52 16 23 -12 29 -13 29 -2 0 7 -6 19 -12 25 -10 10 -10 15 2 22 23 15
29 12 42 -15 6 -14 15 -25 19 -25 11 0 19 28 13 45 -5 11 1 15 20 15 24 0 25
-2 16 -20z"/>
<path d="M2194 4074 c10 -25 -5 -74 -23 -75 -13 0 -12 -2 3 -8 17 -7 16 -8 -7
-24 -16 -11 -24 -23 -21 -32 4 -10 0 -15 -10 -15 -14 0 -15 -8 -10 -57 7 -54
42 -173 43 -145 4 67 74 -180 88 -310 3 -31 3 -65 -1 -75 -7 -17 -9 -16 -27 6
-10 13 -19 33 -19 45 0 25 -55 72 -65 56 -11 -18 -25 1 -19 26 5 18 2 24 -11
24 -13 0 -16 6 -13 25 4 17 1 25 -8 25 -8 0 -14 5 -14 12 0 6 -9 3 -20 -7 -19
-17 -20 -17 -14 -2 3 10 1 24 -6 32 -7 8 -23 56 -36 107 -12 51 -28 94 -34 96
-5 2 -10 12 -10 23 0 10 -4 19 -9 19 -14 0 -60 -73 -67 -107 -7 -36 15 -125
29 -116 5 3 6 -9 2 -28 -8 -39 -25 -63 -25 -36 0 15 -3 16 -21 7 -14 -8 -29
-8 -49 -1 -39 13 -65 4 -79 -26 -7 -14 -10 -28 -7 -30 2 -2 7 5 11 17 6 18 13
10 51 -56 24 -43 49 -81 56 -85 6 -4 11 -20 12 -37 0 -17 4 -28 9 -25 4 2 7
-7 7 -21 0 -33 13 -33 30 -1 7 14 17 25 21 25 13 0 21 -78 14 -130 -8 -60 4
-188 16 -169 8 13 10 9 9 -16 -1 -3 7 -13 16 -22 13 -14 14 -18 3 -22 -17 -5
-43 -31 -32 -31 5 0 14 5 20 11 17 17 59 7 55 -14 -5 -27 36 -87 60 -87 14 0
18 5 14 15 -3 8 -2 15 3 15 13 0 40 -35 44 -56 1 -11 13 -36 25 -55 12 -20 22
-45 22 -56 0 -11 11 -30 25 -43 14 -13 23 -30 21 -37 -3 -7 1 -10 8 -7 8 3 22
-6 33 -20 11 -14 32 -28 47 -32 21 -5 26 -11 23 -25 -3 -10 -2 -17 2 -16 7 2
52 -28 48 -34 -1 -2 0 -3 2 -2 2 1 13 -3 25 -9 20 -11 20 -11 1 -19 -12 -5 1
-6 33 -4 31 3 69 14 95 29 26 16 71 29 122 36 82 11 94 7 108 -33 1 -5 22 0
45 12 52 27 54 26 40 -4 -6 -14 -21 -27 -32 -29 -158 -31 -211 -37 -272 -31
-66 6 -108 -4 -91 -22 5 -4 11 -2 15 4 6 9 15 7 35 -6 15 -9 24 -21 20 -25 -4
-4 1 -4 11 0 13 5 17 4 12 -4 -4 -6 15 -2 43 9 l49 21 41 -28 c23 -15 40 -28
38 -30 -1 -2 -23 4 -47 12 -32 11 -53 13 -79 6 -21 -6 -28 -10 -16 -11 27 -2
117 -56 108 -65 -4 -4 1 -4 11 0 13 5 17 4 13 -3 -5 -7 0 -9 13 -6 15 4 20 0
20 -13 0 -16 2 -17 10 -4 5 8 10 38 10 66 0 28 3 65 6 82 6 30 6 30 40 16 48
-20 162 -19 186 3 16 14 26 15 81 5 40 -8 63 -8 65 -2 2 6 10 10 18 10 8 0 24
10 35 21 17 17 18 23 8 30 -7 4 -13 24 -12 46 l1 38 -18 -45 c-23 -59 -50 -66
-51 -13 l-1 38 -10 -38 c-7 -27 -15 -37 -27 -35 -12 2 -17 17 -19 58 l-4 55
-22 -45 c-24 -50 -40 -55 -42 -12 -2 36 -7 56 -17 63 -5 3 4 21 19 40 26 33
26 33 -10 -3 -21 -21 -47 -38 -59 -38 -18 0 -19 -2 -7 -10 21 -13 42 -130 23
-130 -7 0 -13 -7 -13 -15 0 -8 -9 -15 -20 -15 -13 0 -20 7 -20 20 0 11 -4 20
-9 20 -5 0 -8 29 -7 65 2 54 -1 64 -14 61 -8 -2 -32 -7 -52 -11 -42 -7 -40
-11 -57 107 -8 57 -14 71 -43 97 l-33 29 28 -5 c23 -5 27 -2 27 17 0 23 -1 23
-97 16 -54 -3 -125 -9 -158 -12 l-60 -5 25 20 c14 11 40 26 58 32 17 6 32 14
32 19 0 4 14 13 31 19 40 14 42 14 33 0 -8 -13 78 -5 121 11 24 9 25 13 25 98
0 61 7 117 24 180 13 51 21 92 17 92 -11 0 -179 -74 -250 -109 -33 -17 -64
-31 -69 -31 -8 0 -37 109 -30 114 1 2 40 16 85 31 45 16 80 32 77 37 -8 12
-24 10 -40 -7 -25 -25 -63 -29 -100 -11 -19 9 -42 16 -51 16 -13 0 -13 3 -3
15 11 13 8 15 -14 15 -14 0 -26 5 -26 10 0 6 11 10 25 10 32 0 112 70 93 81
-9 6 -6 15 13 36 39 41 42 59 11 58 -35 0 -37 15 -7 56 48 65 68 120 69 191 0
36 2 65 4 63 2 -2 14 7 28 20 19 18 23 29 18 53 -4 17 -1 45 5 63 6 17 8 42 5
54 l-6 23 -101 -34 c-55 -19 -113 -34 -129 -34 -15 0 -73 18 -128 39 -69 27
-100 35 -96 25z m466 -1043 c0 -33 -224 -171 -278 -171 -8 0 -30 10 -49 21
-44 27 -33 35 68 49 87 12 169 48 195 84 18 24 64 36 64 17z"/>
<path d="M2835 3788 c-22 -26 -26 -39 -22 -70 4 -27 1 -38 -8 -38 -21 0 -26
-28 -19 -98 5 -47 4 -63 -4 -58 -8 5 -10 -2 -6 -24 9 -41 -6 -38 -33 8 l-23
37 6 -42 c5 -30 3 -43 -5 -43 -7 0 -11 -6 -10 -12 4 -31 -2 -48 -16 -48 -8 0
-15 5 -15 12 0 22 -18 -6 -28 -45 -8 -29 -8 -38 1 -34 7 2 49 16 95 31 45 15
82 33 82 40 0 7 15 12 38 12 20 0 78 15 129 33 l92 33 -15 37 c-29 69 -32 70
-139 18 -53 -26 -101 -47 -107 -47 -33 0 86 87 131 96 30 6 30 8 25 53 -6 45
-42 129 -72 164 -22 25 -47 21 -77 -15z"/>
<path d="M3001 3369 c-58 -21 -107 -41 -109 -43 -2 -3 23 -44 56 -93 50 -73
69 -112 107 -230 26 -78 53 -144 61 -147 9 -4 14 2 14 17 0 18 -2 19 -10 7 -5
-8 -10 -10 -10 -4 0 5 5 15 11 21 8 8 6 30 -10 81 -28 92 -27 102 9 115 29 11
41 27 20 27 -5 0 -10 12 -10 26 0 21 4 25 23 22 17 -2 22 -9 22 -30 -1 -20 5
-28 23 -33 14 -3 27 -4 30 -1 10 10 -37 177 -67 242 -17 35 -36 64 -43 64 -7
-1 -60 -19 -117 -41z"/>
<path d="M1621 3253 c-20 -39 -51 -282 -51 -402 0 -90 -4 -130 -15 -152 -11
-20 -15 -50 -13 -92 3 -57 5 -62 27 -65 13 -2 31 -12 40 -22 9 -10 40 -23 69
-29 67 -14 69 -14 76 4 3 8 0 14 -6 12 -7 -1 -16 19 -21 46 -10 54 -30 59 -35
9 -4 -41 -22 -32 -23 11 -1 18 -4 43 -8 56 -6 23 -7 23 -24 6 -15 -14 -17 -26
-11 -59 6 -35 5 -39 -9 -28 -8 7 -18 37 -22 68 -9 71 3 86 57 78 37 -6 39 -6
34 17 -31 144 -49 301 -50 421 -1 76 -2 138 -3 138 -1 0 -6 -8 -12 -17z"/>
<path d="M2496 2344 c-12 -31 -6 -54 19 -69 14 -8 37 -22 51 -31 14 -8 23 -18
20 -21 -3 -3 -20 4 -39 16 -19 11 -37 21 -39 21 -3 0 -6 -24 -6 -52 -2 -53 10
-117 20 -108 3 3 12 -1 21 -9 10 -7 35 -14 57 -15 22 -1 48 -10 57 -18 14 -15
14 -20 -6 -58 -25 -49 -30 -182 -7 -215 16 -25 28 -207 18 -290 -10 -78 -3
-118 18 -105 8 5 30 10 49 10 l34 0 -6 -62 c-4 -35 -9 -103 -13 -152 l-7 -88
-38 5 c-44 6 -49 -2 -49 -70 0 -36 -3 -44 -15 -39 -9 3 -20 -3 -27 -14 -7 -11
-16 -20 -19 -20 -16 0 -29 60 -29 137 0 76 -2 84 -15 73 -12 -10 -13 -15 -4
-20 8 -6 8 -13 -1 -30 -6 -12 -10 -44 -8 -71 1 -27 0 -49 -4 -49 -4 0 -18 15
-32 32 -17 23 -21 35 -13 40 8 5 6 13 -7 27 -12 13 -14 21 -7 21 8 0 10 7 6
20 -4 12 -2 20 5 20 8 0 7 8 -4 25 -9 14 -12 25 -7 25 16 0 20 54 5 71 -18 20
-18 30 1 23 8 -4 15 -2 15 4 0 6 -6 12 -12 15 -10 3 -10 8 -2 18 5 8 9 28 9
44 -1 17 3 36 8 43 5 7 7 15 3 19 -8 9 25 44 35 37 5 -3 6 -11 2 -17 -14 -22
-12 -57 3 -57 12 0 13 29 8 198 -9 289 -10 301 -17 308 -4 4 -7 1 -7 -8 0 -12
-8 -13 -50 -4 -87 17 -111 -10 -125 -141 l-6 -62 63 -35 c98 -56 92 -49 73
-85 l-16 -32 -65 6 -64 7 0 -130 c0 -85 -4 -133 -11 -138 -7 -4 -9 -21 -6 -40
4 -23 2 -32 -5 -28 -6 4 -5 -3 2 -16 9 -17 9 -24 0 -30 -8 -5 -8 -11 3 -21 15
-16 31 -137 21 -163 -9 -23 -24 -20 -24 4 0 11 -4 20 -9 20 -14 0 -26 -21 -26
-44 0 -25 -22 -32 -29 -9 -12 41 -18 113 -9 113 5 0 8 37 7 83 0 45 3 85 8 88
6 4 6 15 -2 28 -6 12 -10 52 -10 89 1 37 -1 100 -5 140 -7 66 -10 72 -30 72
-20 0 -25 -10 -44 -82 -38 -145 -42 -143 -36 14 l5 146 -45 76 c-59 100 -87
157 -82 163 3 2 24 -8 46 -23 23 -15 43 -25 44 -23 2 2 9 31 15 64 7 33 21 93
31 134 17 62 25 171 22 262 -1 14 -14 13 -106 -10 -57 -15 -108 -30 -111 -34
-14 -13 -23 -7 -28 21 -13 76 5 -278 19 -367 16 -102 17 -239 0 -288 -6 -19
-4 -21 14 -16 18 5 21 1 21 -23 -1 -16 3 -45 8 -65 5 -21 6 -43 2 -50 -13 -20
-60 -17 -75 4 -12 16 -14 9 -20 -58 -8 -86 -1 -165 20 -206 8 -15 33 -43 57
-63 54 -46 93 -48 133 -6 16 17 32 30 35 30 4 0 10 -50 12 -111 3 -61 11 -116
17 -122 6 -6 11 -32 11 -57 0 -26 3 -88 7 -139 l6 -91 71 -44 c39 -25 92 -55
119 -67 26 -13 47 -26 47 -31 0 -6 -31 -90 -55 -151 -6 -15 0 -17 58 -17 36 0
68 -3 71 -8 8 -13 10 -186 2 -207 -4 -11 -1 -8 8 6 10 18 17 72 22 190 3 90
10 171 15 179 5 9 9 10 9 3 0 -9 13 -11 46 -6 26 3 61 1 83 -7 45 -15 81 -1
81 30 0 11 5 21 10 21 6 1 14 2 19 3 21 3 32 26 38 80 6 56 6 56 -41 106 -49
53 -55 73 -29 102 9 10 12 18 7 18 -11 0 -8 121 12 463 17 293 12 411 -15 403
-9 -3 -32 4 -51 14 l-35 19 43 17 c39 16 43 20 38 43 -3 14 -9 83 -12 153 -6
103 -4 135 10 176 17 55 20 83 9 80 -9 -1 -20 3 -146 59 -53 23 -101 43 -107
43 -5 0 -7 7 -4 15 4 8 4 15 1 15 -3 0 -8 -7 -11 -16z"/>
<path d="M2363 2040 c-23 -14 -33 -27 -33 -45 0 -14 -4 -25 -10 -25 -5 0 -10
-14 -10 -32 0 -30 0 -31 20 -13 12 11 43 20 82 24 36 3 63 11 66 19 2 6 -3 12
-11 12 -8 0 -18 7 -21 16 -5 12 -2 15 10 10 8 -3 19 -6 23 -6 5 0 25 -21 46
-47 l38 -48 -7 49 c-7 57 -19 74 -63 93 -46 19 -62 16 -34 -8 13 -11 21 -22
18 -26 -8 -7 -57 24 -57 37 0 16 -22 12 -57 -10z"/>
</g>
</svg>
